<?xml version="1.0" encoding="UTF-8"?>
<!DOCTYPE svg PUBLIC "-//W3C//DTD SVG 1.1//EN" "http://www.w3.org/Graphics/SVG/1.1/DTD/svg11.dtd">
<svg xmlns="http://www.w3.org/2000/svg" version="1.1" width="625px" height="725px" style="shape-rendering:geometricPrecision; text-rendering:geometricPrecision; image-rendering:optimizeQuality; fill-rule:evenodd; clip-rule:evenodd" xmlns:xlink="http://www.w3.org/1999/xlink">
<g><path style="opacity:0.982" fill="#fefefe" d="M 309.5,-0.5 C 311.167,-0.5 312.833,-0.5 314.5,-0.5C 417.516,51.6745 520.849,103.341 624.5,154.5C 624.5,292.833 624.5,431.167 624.5,569.5C 520.849,620.659 417.516,672.325 314.5,724.5C 312.833,724.5 311.167,724.5 309.5,724.5C 206.484,672.325 103.151,620.659 -0.5,569.5C -0.5,431.167 -0.5,292.833 -0.5,154.5C 103.151,103.341 206.484,51.6745 309.5,-0.5 Z"/></g>
<g><path style="opacity:1" fill="#349933" d="M 310.5,27.5 C 407.381,74.9402 504.047,122.94 600.5,171.5C 601.833,298.833 601.833,426.167 600.5,553.5C 504.285,601.774 407.952,649.774 311.5,697.5C 215.137,649.902 118.971,601.902 23,553.5C 22.1667,426.165 22.3333,298.832 23.5,171.5C 119.383,123.725 215.049,75.7255 310.5,27.5 Z"/></g>
<g><path style="opacity:1" fill="#fefefe" d="M 309.5,55.5 C 310.873,55.3433 312.207,55.51 313.5,56C 400.167,99.3333 486.833,142.667 573.5,186C 565.954,190.933 558.621,196.1 551.5,201.5C 552.012,204.532 553.678,205.699 556.5,205C 563,200.5 569.5,196 576,191.5C 576.833,307.168 576.667,422.835 575.5,538.5C 488.833,581.833 402.167,625.167 315.5,668.5C 314.502,658.856 314.168,649.19 314.5,639.5C 312.5,639.5 310.5,639.5 308.5,639.5C 308.666,649.172 308.5,658.839 308,668.5C 221.578,625.039 135.078,581.705 48.5,538.5C 47.1667,423.167 47.1667,307.833 48.5,192.5C 54.9687,196.47 61.302,200.637 67.5,205C 70.3216,205.699 71.9883,204.532 72.5,201.5C 65.0514,196.56 57.7181,191.394 50.5,186C 136.894,142.47 223.228,98.9698 309.5,55.5 Z"/></g>
<g><path style="opacity:1" fill="#339933" d="M 397.5,233.5 C 397.5,247.167 397.5,260.833 397.5,274.5C 423.167,274.5 448.833,274.5 474.5,274.5C 496.843,276.439 510.343,288.439 515,310.5C 515.667,390.167 515.667,469.833 515,549.5C 495.5,528.667 476,507.833 456.5,487C 391.833,486.667 327.167,486.333 262.5,486C 244.116,481.949 232.616,470.783 228,452.5C 227.502,449.518 227.335,446.518 227.5,443.5C 227.5,431.167 227.5,418.833 227.5,406.5C 207.66,406.17 187.993,406.503 168.5,407.5C 148.867,427.969 129.367,448.636 110,469.5C 109.333,390.167 109.333,310.833 110,231.5C 113.974,212.193 125.474,200.026 144.5,195C 216.833,194.333 289.167,194.333 361.5,195C 382.642,199.308 394.642,212.141 397.5,233.5 Z"/></g>
<g><path style="opacity:1" fill="#fefefe" d="M 372.5,234.5 C 372.5,247.5 372.5,260.5 372.5,273.5C 336.996,273.168 301.663,273.502 266.5,274.5C 246.519,276.97 233.685,287.97 228,307.5C 227.5,332.164 227.333,356.831 227.5,381.5C 204.164,381.333 180.831,381.5 157.5,382C 150,390.167 142.5,398.333 135,406.5C 134.333,348.833 134.333,291.167 135,233.5C 136.675,227.159 140.508,222.659 146.5,220C 217.833,219.333 289.167,219.333 360.5,220C 367.21,222.585 371.21,227.418 372.5,234.5 Z"/></g>
<g><path style="opacity:1" fill="#acd6ac" d="M 372.5,234.5 C 373.496,247.656 373.829,260.99 373.5,274.5C 337.833,274.5 302.167,274.5 266.5,274.5C 301.663,273.502 336.996,273.168 372.5,273.5C 372.5,260.5 372.5,247.5 372.5,234.5 Z"/></g>
<g><path style="opacity:1" fill="#acd5ab" d="M 397.5,233.5 C 398.496,246.656 398.829,259.99 398.5,273.5C 424.005,273.169 449.339,273.502 474.5,274.5C 448.833,274.5 423.167,274.5 397.5,274.5C 397.5,260.833 397.5,247.167 397.5,233.5 Z"/></g>
<g><path style="opacity:1" fill="#fefefe" d="M 252.5,446.5 C 252.5,433.5 252.5,420.5 252.5,407.5C 287.671,407.832 322.671,407.498 357.5,406.5C 381.93,403.234 395.43,389.234 398,364.5C 398.5,342.836 398.667,321.169 398.5,299.5C 424.835,299.333 451.169,299.5 477.5,300C 482.799,301.398 486.632,304.565 489,309.5C 490.655,368.109 490.988,426.775 490,485.5C 482.385,477.763 474.885,469.929 467.5,462C 399.833,461.667 332.167,461.333 264.5,461C 257.794,458.428 253.794,453.595 252.5,446.5 Z"/></g>
<g><path style="opacity:1" fill="#aad5aa" d="M 168.5,407.5 C 187.993,406.503 207.66,406.17 227.5,406.5C 227.5,418.833 227.5,431.167 227.5,443.5C 226.505,431.678 226.172,419.678 226.5,407.5C 207.167,407.5 187.833,407.5 168.5,407.5 Z"/></g>
<g><path style="opacity:1" fill="#abd5ab" d="M 357.5,406.5 C 322.671,407.498 287.671,407.832 252.5,407.5C 252.5,420.5 252.5,433.5 252.5,446.5C 251.504,433.344 251.171,420.01 251.5,406.5C 286.833,406.5 322.167,406.5 357.5,406.5 Z"/></g>
</svg>
